<?xml version="1.0" encoding="UTF-8" standalone="no"?>
<!-- Generator: Adobe Illustrator 16.0.0, SVG Export Plug-In . SVG Version: 6.00 Build 0)  -->

<svg
   xmlns:dc="http://purl.org/dc/elements/1.1/"
   xmlns:cc="http://creativecommons.org/ns#"
   xmlns:rdf="http://www.w3.org/1999/02/22-rdf-syntax-ns#"
   xmlns:svg="http://www.w3.org/2000/svg"
   xmlns="http://www.w3.org/2000/svg"
   xmlns:sodipodi="http://sodipodi.sourceforge.net/DTD/sodipodi-0.dtd"
   xmlns:inkscape="http://www.inkscape.org/namespaces/inkscape"
   version="1.1"
   id="Capa_1"
   x="0px"
   y="0px"
   width="512px"
   height="512px"
   viewBox="0 0 31.603 31.603"
   style="enable-background:new 0 0 31.603 31.603;"
   xml:space="preserve"
   inkscape:version="0.91 r13725"
   sodipodi:docname="trackexplorer-icon.svg"
   inkscape:export-filename="/Users/Niklas/Code/trackexplorer-git/assets/icon/icon-mac.iconset/icon_512x512@2x.png"
   inkscape:export-xdpi="180"
   inkscape:export-ydpi="180"><metadata
     id="metadata49"><rdf:RDF><cc:Work
         rdf:about=""><dc:format>image/svg+xml</dc:format><dc:type
           rdf:resource="http://purl.org/dc/dcmitype/StillImage" /><dc:title /></cc:Work></rdf:RDF></metadata><defs
     id="defs47" /><sodipodi:namedview
     pagecolor="#ffffff"
     bordercolor="#666666"
     borderopacity="1"
     objecttolerance="10"
     gridtolerance="10"
     guidetolerance="10"
     inkscape:pageopacity="0"
     inkscape:pageshadow="2"
     inkscape:window-width="1178"
     inkscape:window-height="712"
     id="namedview45"
     showgrid="false"
     inkscape:zoom="0.5"
     inkscape:cx="-270.96666"
     inkscape:cy="178.7294"
     inkscape:window-x="0"
     inkscape:window-y="0"
     inkscape:window-maximized="0"
     inkscape:current-layer="Capa_1" /><g
     id="g3"
     transform="matrix(0.9257813,0,0,0.9257813,1.1727307,1.1727677)"><g
       id="g5"><path
         d="m 7.703,15.973 c 0,0 5.651,-5.625 5.651,-10.321 C 13.354,2.53 10.824,0 7.703,0 4.582,0 2.052,2.53 2.052,5.652 c 0,4.962 5.651,10.321 5.651,10.321 z M 4.758,5.652 c 0,-1.628 1.319,-2.946 2.945,-2.946 1.626,0 2.945,1.318 2.945,2.946 0,1.626 -1.319,2.944 -2.945,2.944 -1.626,0 -2.945,-1.318 -2.945,-2.944 z"
         id="path7"
         inkscape:connector-curvature="0"
         style="fill:#ff8300" /><path
         d="M 28.59,7.643 28.131,7.789 25.676,8.008 24.984,9.114 24.483,8.954 22.53,7.194 22.245,6.279 21.868,5.302 20.639,4.2 19.193,3.917 19.159,4.58 20.577,5.964 21.271,6.781 20.489,7.189 19.853,7.001 18.902,6.605 18.935,5.836 17.685,5.322 17.27,7.126 l -1.258,0.286 0.125,1.007 1.638,0.316 0.284,-1.609 1.353,0.201 0.629,0.368 1.011,0 0.69,1.384 1.833,1.859 -0.134,0.723 -1.478,-0.189 -2.553,1.289 -1.838,2.205 -0.239,0.976 -0.661,0 -1.229,-0.566 -1.194,0.566 0.297,1.261 0.52,-0.602 0.913,-0.027 -0.064,1.132 0.757,0.22 0.756,0.85 1.234,-0.347 1.41,0.222 1.636,0.441 0.819,0.095 1.384,1.573 2.675,1.574 -1.729,3.306 -1.826,0.849 -0.693,1.889 -2.643,1.765 -0.282,1.019 C 26.166,29.535 31.192,23.469 31.192,16.212 31.194,13.038 30.234,10.09 28.59,7.643 Z"
         id="path9"
         inkscape:connector-curvature="0"
         style="fill:#ff8300" /><path
         d="m 17.573,24.253 -1.12,-2.078 1.028,-2.146 -1.028,-0.311 -1.156,-1.159 -2.56,-0.573 -0.85,-1.779 0,1.057 -0.375,0 -1.625,-2.203 C 9.094,16.01 8.492,16.616 8.417,16.69 L 7.72,17.384 7.007,16.707 C 6.824,16.531 3.549,13.392 1.93,9.577 c -0.966,2.009 -1.52,4.252 -1.52,6.63 0,8.502 6.891,15.396 15.393,15.396 0.654,0 1.296,-0.057 1.931,-0.135 l -0.161,-1.864 c 0,0 0.707,-2.77 0.707,-2.863 0,-0.095 -0.707,-2.488 -0.707,-2.488 z"
         id="path11"
         inkscape:connector-curvature="0"
         style="fill:#ff8300" /><path
         d="m 14.586,3.768 1.133,0.187 2.75,-0.258 0.756,-0.834 1.068,-0.714 1.512,0.228 0.551,-0.083 C 20.365,1.357 18.149,0.815 15.803,0.815 c -1.096,0 -2.16,0.128 -3.191,0.345 0.801,0.875 1.377,1.958 1.622,3.163 L 14.586,3.768 Z M 16.453,2.343 18.026,1.478 19.035,2.06 17.573,3.173 16.179,3.314 15.55,2.907 16.453,2.343 Z"
         id="path13"
         inkscape:connector-curvature="0"
         style="fill:#ff8300" /></g></g><g
     id="g15" /><g
     id="g17" /><g
     id="g19" /><g
     id="g21" /><g
     id="g23" /><g
     id="g25" /><g
     id="g27" /><g
     id="g29" /><g
     id="g31" /><g
     id="g33" /><g
     id="g35" /><g
     id="g37" /><g
     id="g39" /><g
     id="g41" /><g
     id="g43" /><circle
     style="opacity:1;fill:none;fill-opacity:1;stroke:#196e52;stroke-width:0.77376282;stroke-miterlimit:4;stroke-dasharray:none;stroke-opacity:1"
     id="circle4183"
     cx="27.286022"
     cy="20.000156"
     r="0.92326951" /><circle
     r="0.92326951"
     cy="17.159889"
     cx="24.816225"
     id="circle4185"
     style="opacity:1;fill:none;fill-opacity:1;stroke:#196e52;stroke-width:0.77376282;stroke-miterlimit:4;stroke-dasharray:none;stroke-opacity:1" /><circle
     style="opacity:1;fill:none;fill-opacity:1;stroke:#196e52;stroke-width:0.77376282;stroke-miterlimit:4;stroke-dasharray:none;stroke-opacity:1"
     id="circle4187"
     cx="17.777298"
     cy="16.789419"
     r="0.92326951" /><circle
     r="0.92326951"
     cy="19.591097"
     cx="11.566139"
     id="circle4189"
     style="opacity:1;fill:none;fill-opacity:1;stroke:#196e52;stroke-width:0.77376282;stroke-miterlimit:4;stroke-dasharray:none;stroke-opacity:1" /><circle
     style="opacity:1;fill:none;fill-opacity:1;stroke:#196e52;stroke-width:0.77376282;stroke-miterlimit:4;stroke-dasharray:none;stroke-opacity:1"
     id="circle4193"
     cx="21.235018"
     cy="15.678009"
     r="0.92326951" /><circle
     style="opacity:1;fill:none;fill-opacity:1;stroke:#196e52;stroke-width:0.77376282;stroke-miterlimit:4;stroke-dasharray:none;stroke-opacity:1"
     id="circle4195"
     cx="14.900368"
     cy="20.085058"
     r="0.92326951" /><path
     style="fill:none;fill-rule:evenodd;stroke:#196e52;stroke-width:0.56921142;stroke-linecap:butt;stroke-linejoin:miter;stroke-miterlimit:4;stroke-dasharray:none;stroke-opacity:1"
     d="M 9.0712602,18.549152 10.861864,19.1666"
     id="path4203"
     inkscape:connector-curvature="0" /><path
     inkscape:connector-curvature="0"
     id="path4205"
     d="m 12.302121,19.684319 1.697987,0.154362"
     style="fill:none;fill-rule:evenodd;stroke:#196e52;stroke-width:0.56921142;stroke-linecap:butt;stroke-linejoin:miter;stroke-miterlimit:4;stroke-dasharray:none;stroke-opacity:1"
     sodipodi:nodetypes="cc" /><path
     sodipodi:nodetypes="cc"
     style="fill:none;fill-rule:evenodd;stroke:#196e52;stroke-width:0.56921142;stroke-linecap:butt;stroke-linejoin:miter;stroke-miterlimit:4;stroke-dasharray:none;stroke-opacity:1"
     d="m 15.505369,19.396782 1.520242,-1.78092"
     id="path4207"
     inkscape:connector-curvature="0" /><path
     inkscape:connector-curvature="0"
     id="path4209"
     d="m 18.654362,16.494767 1.520243,-0.607764"
     style="fill:none;fill-rule:evenodd;stroke:#196e52;stroke-width:0.56921142;stroke-linecap:butt;stroke-linejoin:miter;stroke-miterlimit:4;stroke-dasharray:none;stroke-opacity:1"
     sodipodi:nodetypes="cc" /><path
     sodipodi:nodetypes="cc"
     style="fill:none;fill-rule:evenodd;stroke:#196e52;stroke-width:0.56921142;stroke-linecap:butt;stroke-linejoin:miter;stroke-miterlimit:4;stroke-dasharray:none;stroke-opacity:1"
     d="m 22.203598,16.03999 1.613959,0.70083"
     id="path4230"
     inkscape:connector-curvature="0" /><path
     inkscape:connector-curvature="0"
     id="path4232"
     d="m 25.448103,17.861466 1.329354,1.270042"
     style="fill:none;fill-rule:evenodd;stroke:#196e52;stroke-width:0.56921142;stroke-linecap:butt;stroke-linejoin:miter;stroke-miterlimit:4;stroke-dasharray:none;stroke-opacity:1"
     sodipodi:nodetypes="cc" /><path
     inkscape:connector-curvature="0"
     id="path4234"
     d="m 5.0134129,16.153832 2.2116318,1.298501"
     style="fill:none;fill-rule:evenodd;stroke:#196e52;stroke-width:0.56921142;stroke-linecap:butt;stroke-linejoin:miter;stroke-miterlimit:4;stroke-dasharray:none;stroke-opacity:1"
     sodipodi:nodetypes="cc" /><circle
     r="0.92326951"
     cy="15.690553"
     cx="4.2271719"
     id="circle4236"
     style="opacity:1;fill:none;fill-opacity:1;stroke:#196e52;stroke-width:0.77376282;stroke-miterlimit:4;stroke-dasharray:none;stroke-opacity:1" /><path
     sodipodi:nodetypes="cc"
     style="fill:none;fill-rule:evenodd;stroke:#196e52;stroke-width:0.56921142;stroke-linecap:round;stroke-linejoin:miter;stroke-miterlimit:4;stroke-dasharray:none;stroke-opacity:1"
     d="m 2.2110581,12.758688 1.250878,1.957385"
     id="path4238"
     inkscape:connector-curvature="0" /><path
     sodipodi:nodetypes="cc"
     style="fill:none;fill-rule:evenodd;stroke:#196e52;stroke-width:0.56921142;stroke-linecap:round;stroke-linejoin:miter;stroke-miterlimit:4;stroke-dasharray:none;stroke-opacity:1"
     d="m 27.829754,20.828678 0.687387,1.172523"
     id="path4242"
     inkscape:connector-curvature="0" /><circle
     style="opacity:1;fill:none;fill-opacity:1;stroke:#00ffff;stroke-width:0.77376282;stroke-miterlimit:4;stroke-dasharray:none;stroke-opacity:1"
     id="circle4191"
     cx="8.2685728"
     cy="18.024319"
     r="0.92326951" /></svg>